<?xml version="1.0" standalone="no"?>
<!DOCTYPE svg PUBLIC "-//W3C//DTD SVG 20010904//EN"
 "http://www.w3.org/TR/2001/REC-SVG-20010904/DTD/svg10.dtd">
<svg version="1.0" xmlns="http://www.w3.org/2000/svg"
 width="2251.000000pt" height="2078.000000pt" viewBox="0 0 2251.000000 2078.000000"
 preserveAspectRatio="xMidYMid meet">

<g transform="translate(0.000000,2078.000000) scale(0.100000,-0.100000)"
fill="#000000" stroke="none">
<path d="M10616 20754 c-1312 -134 -2460 -859 -3124 -1974 -115 -194 -7011
-12677 -7079 -12815 -470 -957 -538 -2083 -187 -3105 332 -968 987 -1752 1879
-2251 547 -306 1084 -498 1610 -576 172 -25 622 -25 785 0 630 99 1186 369
1875 911 169 132 320 260 805 681 267 231 539 466 605 521 1036 867 1915 1297
2915 1423 455 58 920 46 1358 -35 663 -122 1314 -417 2007 -909 301 -213 500
-374 1205 -971 681 -576 924 -767 1245 -979 1118 -738 2132 -838 3343 -330
625 262 1166 632 1562 1069 598 658 943 1421 1057 2336 24 195 24 680 -1 885
-59 496 -190 938 -401 1360 -79 156 -7004 12688 -7086 12822 -115 188 -259
385 -400 548 -105 121 -343 355 -459 452 -534 443 -1154 739 -1840 877 -310
63 -388 69 -985 72 -420 2 -583 -1 -689 -12z m2739 -9045 c591 -102 1077 -188
1079 -190 2 -2 -337 -353 -754 -779 -595 -608 -759 -781 -759 -801 -1 -14 67
-495 149 -1070 83 -574 149 -1049 148 -1056 -2 -8 -369 165 -968 457 -531 259
-975 473 -986 476 -15 4 -312 -136 -999 -470 -538 -262 -980 -474 -982 -473
-2 2 66 487 151 1078 l155 1074 -147 150 c-81 83 -425 435 -765 783 -340 347
-617 632 -615 632 2 1 489 85 1082 188 l1079 187 494 925 c272 509 503 942
514 964 l21 38 513 -963 514 -964 1076 -186z"/>
</g>
</svg>
